<?xml version="1.0" encoding="UTF-8" standalone="no"?>
<!DOCTYPE svg PUBLIC "-//W3C//DTD SVG 1.1//EN"
 "http://www.w3.org/Graphics/SVG/1.1/DTD/svg11.dtd">
<!-- Generated by graphviz version 2.47.0 (20210316.0004)
 -->
<!-- Title: dbml Pages: 1 -->
<svg width="1879pt" height="3123pt"
 viewBox="0.00 0.00 1878.88 3123.49" xmlns="http://www.w3.org/2000/svg" xmlns:xlink="http://www.w3.org/1999/xlink">
<g id="graph0" class="graph" transform="scale(1 1) rotate(0) translate(4 3119.49)">
<title>dbml</title>
<!-- Customer -->
<g id="Customer" class="node">
<title>Customer</title>
<ellipse fill="none" stroke="black" stroke-width="0" cx="1595.11" cy="-2164.53" rx="210.02" ry="172.57"/>
<polygon fill="#1d71b8" stroke="transparent" points="1449.11,-2224.53 1449.11,-2284.53 1742.11,-2284.53 1742.11,-2224.53 1449.11,-2224.53"/>
<polygon fill="none" stroke="#29235c" points="1449.11,-2224.53 1449.11,-2284.53 1742.11,-2284.53 1742.11,-2224.53 1449.11,-2224.53"/>
<text text-anchor="start" x="1464.03" y="-2245.73" font-family="Helvetica,sans-Serif" font-weight="bold" font-size="32.00" fill="#ffffff"> &#160;&#160;&#160;&#160;&#160;&#160;Customer &#160;&#160;&#160;&#160;&#160;&#160;</text>
<polygon fill="#e7e2dd" stroke="transparent" points="1449.11,-2164.53 1449.11,-2224.53 1742.11,-2224.53 1742.11,-2164.53 1449.11,-2164.53"/>
<polygon fill="none" stroke="#29235c" points="1449.11,-2164.53 1449.11,-2224.53 1742.11,-2224.53 1742.11,-2164.53 1449.11,-2164.53"/>
<text text-anchor="start" x="1460.11" y="-2185.73" font-family="Helvetica,sans-Serif" font-weight="bold" font-size="32.00" fill="#29235c">id</text>
<text text-anchor="start" x="1485" y="-2185.73" font-family="Helvetica,sans-Serif" font-size="32.00" fill="#29235c"> &#160;&#160;&#160;</text>
<text text-anchor="start" x="1588.89" y="-2185.73" font-family="Helvetica,sans-Serif" font-style="italic" font-size="32.00" fill="#29235c">INTEGER</text>
<polygon fill="#e7e2dd" stroke="transparent" points="1449.11,-2104.53 1449.11,-2164.53 1742.11,-2164.53 1742.11,-2104.53 1449.11,-2104.53"/>
<polygon fill="none" stroke="#29235c" points="1449.11,-2104.53 1449.11,-2164.53 1742.11,-2164.53 1742.11,-2104.53 1449.11,-2104.53"/>
<text text-anchor="start" x="1459.81" y="-2124.73" font-family="Helvetica,sans-Serif" font-size="32.00" fill="#29235c">name &#160;&#160;&#160;</text>
<text text-anchor="start" x="1574.9" y="-2125.73" font-family="Helvetica,sans-Serif" font-style="italic" font-size="32.00" fill="#29235c">VARCHAR</text>
<polygon fill="#e7e2dd" stroke="transparent" points="1449.11,-2044.53 1449.11,-2104.53 1742.11,-2104.53 1742.11,-2044.53 1449.11,-2044.53"/>
<polygon fill="none" stroke="#29235c" points="1449.11,-2044.53 1449.11,-2104.53 1742.11,-2104.53 1742.11,-2044.53 1449.11,-2044.53"/>
<text text-anchor="start" x="1460.11" y="-2064.73" font-family="Helvetica,sans-Serif" font-size="32.00" fill="#29235c">email &#160;&#160;&#160;</text>
<text text-anchor="start" x="1574.68" y="-2065.73" font-family="Helvetica,sans-Serif" font-style="italic" font-size="32.00" fill="#29235c">VARCHAR</text>
<polygon fill="none" stroke="#29235c" stroke-width="2" points="1447.61,-2043.53 1447.61,-2285.53 1742.61,-2285.53 1742.61,-2043.53 1447.61,-2043.53"/>
</g>
<!-- CustomerFeedback -->
<g id="CustomerFeedback" class="node">
<title>CustomerFeedback</title>
<ellipse fill="none" stroke="black" stroke-width="0" cx="318.2" cy="-2410.53" rx="303.2" ry="257.27"/>
<polygon fill="#1d71b8" stroke="transparent" points="106.2,-2530.53 106.2,-2590.53 531.2,-2590.53 531.2,-2530.53 106.2,-2530.53"/>
<polygon fill="none" stroke="#29235c" points="106.2,-2530.53 106.2,-2590.53 531.2,-2590.53 531.2,-2530.53 106.2,-2530.53"/>
<text text-anchor="start" x="116.87" y="-2551.73" font-family="Helvetica,sans-Serif" font-weight="bold" font-size="32.00" fill="#ffffff"> &#160;&#160;&#160;&#160;&#160;&#160;CustomerFeedback &#160;&#160;&#160;&#160;&#160;&#160;</text>
<polygon fill="#e7e2dd" stroke="transparent" points="106.2,-2470.53 106.2,-2530.53 531.2,-2530.53 531.2,-2470.53 106.2,-2470.53"/>
<polygon fill="none" stroke="#29235c" points="106.2,-2470.53 106.2,-2530.53 531.2,-2530.53 531.2,-2470.53 106.2,-2470.53"/>
<text text-anchor="start" x="117.2" y="-2491.73" font-family="Helvetica,sans-Serif" font-weight="bold" font-size="32.00" fill="#29235c">id</text>
<text text-anchor="start" x="142.09" y="-2491.73" font-family="Helvetica,sans-Serif" font-size="32.00" fill="#29235c"> &#160;&#160;&#160;</text>
<text text-anchor="start" x="377.98" y="-2491.73" font-family="Helvetica,sans-Serif" font-style="italic" font-size="32.00" fill="#29235c">INTEGER</text>
<polygon fill="#e7e2dd" stroke="transparent" points="106.2,-2410.53 106.2,-2470.53 531.2,-2470.53 531.2,-2410.53 106.2,-2410.53"/>
<polygon fill="none" stroke="#29235c" points="106.2,-2410.53 106.2,-2470.53 531.2,-2470.53 531.2,-2410.53 106.2,-2410.53"/>
<text text-anchor="start" x="117.2" y="-2430.73" font-family="Helvetica,sans-Serif" font-size="32.00" fill="#29235c">customer_id &#160;&#160;&#160;</text>
<text text-anchor="start" x="377.98" y="-2431.73" font-family="Helvetica,sans-Serif" font-style="italic" font-size="32.00" fill="#29235c">INTEGER</text>
<polygon fill="#e7e2dd" stroke="transparent" points="106.2,-2350.53 106.2,-2410.53 531.2,-2410.53 531.2,-2350.53 106.2,-2350.53"/>
<polygon fill="none" stroke="#29235c" points="106.2,-2350.53 106.2,-2410.53 531.2,-2410.53 531.2,-2350.53 106.2,-2350.53"/>
<text text-anchor="start" x="117.2" y="-2370.73" font-family="Helvetica,sans-Serif" font-size="32.00" fill="#29235c">product_id &#160;&#160;&#160;</text>
<text text-anchor="start" x="377.98" y="-2371.73" font-family="Helvetica,sans-Serif" font-style="italic" font-size="32.00" fill="#29235c">INTEGER</text>
<polygon fill="#e7e2dd" stroke="transparent" points="106.2,-2290.53 106.2,-2350.53 531.2,-2350.53 531.2,-2290.53 106.2,-2290.53"/>
<polygon fill="none" stroke="#29235c" points="106.2,-2290.53 106.2,-2350.53 531.2,-2350.53 531.2,-2290.53 106.2,-2290.53"/>
<text text-anchor="start" x="117.2" y="-2310.73" font-family="Helvetica,sans-Serif" font-size="32.00" fill="#29235c">feedback_text &#160;&#160;&#160;</text>
<text text-anchor="start" x="363.77" y="-2311.73" font-family="Helvetica,sans-Serif" font-style="italic" font-size="32.00" fill="#29235c">VARCHAR</text>
<polygon fill="#e7e2dd" stroke="transparent" points="106.2,-2230.53 106.2,-2290.53 531.2,-2290.53 531.2,-2230.53 106.2,-2230.53"/>
<polygon fill="none" stroke="#29235c" points="106.2,-2230.53 106.2,-2290.53 531.2,-2290.53 531.2,-2230.53 106.2,-2230.53"/>
<text text-anchor="start" x="117.2" y="-2250.73" font-family="Helvetica,sans-Serif" font-size="32.00" fill="#29235c">rating &#160;&#160;&#160;</text>
<text text-anchor="start" x="377.98" y="-2251.73" font-family="Helvetica,sans-Serif" font-style="italic" font-size="32.00" fill="#29235c">INTEGER</text>
<polygon fill="none" stroke="#29235c" stroke-width="2" points="104.7,-2229.53 104.7,-2591.53 531.7,-2591.53 531.7,-2229.53 104.7,-2229.53"/>
</g>
<!-- CustomerFeedback&#45;&gt;Customer -->
<!-- CustomerFeedback&#45;&gt;Customer -->
<g id="edge2" class="edge">
<title>CustomerFeedback:e&#45;&gt;Customer:w</title>
<path fill="none" stroke="#29235c" stroke-width="3" d="M532.2,-2440.53C602.66,-2440.53 606.26,-2390.82 672.4,-2366.53 1000.73,-2245.96 1093.22,-2195.5 1438.09,-2194.55"/>
<polygon fill="#29235c" stroke="#29235c" stroke-width="3" points="1438.11,-2198.05 1448.11,-2194.53 1438.1,-2191.05 1438.11,-2198.05"/>
<text text-anchor="middle" x="1454.33" y="-2204.13" font-family="Helvetica,sans-Serif" font-size="32.00" fill="#29235c">*</text>
<text text-anchor="middle" x="523.3" y="-2450.13" font-family="Helvetica,sans-Serif" font-size="32.00" fill="#29235c">1</text>
</g>
<!-- Product -->
<g id="Product" class="node">
<title>Product</title>
<ellipse fill="none" stroke="black" stroke-width="0" cx="977.87" cy="-1291.53" rx="210.02" ry="172.57"/>
<polygon fill="#1d71b8" stroke="transparent" points="831.87,-1351.53 831.87,-1411.53 1124.87,-1411.53 1124.87,-1351.53 831.87,-1351.53"/>
<polygon fill="none" stroke="#29235c" points="831.87,-1351.53 831.87,-1411.53 1124.87,-1411.53 1124.87,-1351.53 831.87,-1351.53"/>
<text text-anchor="start" x="860.99" y="-1372.73" font-family="Helvetica,sans-Serif" font-weight="bold" font-size="32.00" fill="#ffffff"> &#160;&#160;&#160;&#160;&#160;&#160;Product &#160;&#160;&#160;&#160;&#160;&#160;</text>
<polygon fill="#e7e2dd" stroke="transparent" points="831.87,-1291.53 831.87,-1351.53 1124.87,-1351.53 1124.87,-1291.53 831.87,-1291.53"/>
<polygon fill="none" stroke="#29235c" points="831.87,-1291.53 831.87,-1351.53 1124.87,-1351.53 1124.87,-1291.53 831.87,-1291.53"/>
<text text-anchor="start" x="842.87" y="-1312.73" font-family="Helvetica,sans-Serif" font-weight="bold" font-size="32.00" fill="#29235c">id</text>
<text text-anchor="start" x="867.76" y="-1312.73" font-family="Helvetica,sans-Serif" font-size="32.00" fill="#29235c"> &#160;&#160;&#160;</text>
<text text-anchor="start" x="971.65" y="-1312.73" font-family="Helvetica,sans-Serif" font-style="italic" font-size="32.00" fill="#29235c">INTEGER</text>
<polygon fill="#e7e2dd" stroke="transparent" points="831.87,-1231.53 831.87,-1291.53 1124.87,-1291.53 1124.87,-1231.53 831.87,-1231.53"/>
<polygon fill="none" stroke="#29235c" points="831.87,-1231.53 831.87,-1291.53 1124.87,-1291.53 1124.87,-1231.53 831.87,-1231.53"/>
<text text-anchor="start" x="842.57" y="-1251.73" font-family="Helvetica,sans-Serif" font-size="32.00" fill="#29235c">name &#160;&#160;&#160;</text>
<text text-anchor="start" x="957.65" y="-1252.73" font-family="Helvetica,sans-Serif" font-style="italic" font-size="32.00" fill="#29235c">VARCHAR</text>
<polygon fill="#e7e2dd" stroke="transparent" points="831.87,-1171.53 831.87,-1231.53 1124.87,-1231.53 1124.87,-1171.53 831.87,-1171.53"/>
<polygon fill="none" stroke="#29235c" points="831.87,-1171.53 831.87,-1231.53 1124.87,-1231.53 1124.87,-1171.53 831.87,-1171.53"/>
<text text-anchor="start" x="842.87" y="-1191.73" font-family="Helvetica,sans-Serif" font-size="32.00" fill="#29235c">price &#160;&#160;&#160;</text>
<text text-anchor="start" x="1010.75" y="-1192.73" font-family="Helvetica,sans-Serif" font-style="italic" font-size="32.00" fill="#29235c">FLOAT</text>
<polygon fill="none" stroke="#29235c" stroke-width="2" points="830.37,-1170.53 830.37,-1412.53 1125.37,-1412.53 1125.37,-1170.53 830.37,-1170.53"/>
</g>
<!-- CustomerFeedback&#45;&gt;Product -->
<!-- CustomerFeedback&#45;&gt;Product -->
<g id="edge4" class="edge">
<title>CustomerFeedback:e&#45;&gt;Product:w</title>
<path fill="none" stroke="#29235c" stroke-width="3" d="M532.2,-2380.53C646.86,-2380.53 606.47,-2255.22 636.4,-2144.53 684.54,-1966.49 644.49,-1345.18 820.64,-1322.19"/>
<polygon fill="#29235c" stroke="#29235c" stroke-width="3" points="821.11,-1325.67 830.87,-1321.53 820.66,-1318.68 821.11,-1325.67"/>
<text text-anchor="middle" x="824.64" y="-1331.13" font-family="Helvetica,sans-Serif" font-size="32.00" fill="#29235c">*</text>
<text text-anchor="middle" x="523.3" y="-2390.13" font-family="Helvetica,sans-Serif" font-size="32.00" fill="#29235c">1</text>
</g>
<!-- Employee -->
<g id="Employee" class="node">
<title>Employee</title>
<ellipse fill="none" stroke="black" stroke-width="0" cx="318.2" cy="-2900.53" rx="231.45" ry="214.92"/>
<polygon fill="#1d71b8" stroke="transparent" points="157.2,-2990.53 157.2,-3050.53 480.2,-3050.53 480.2,-2990.53 157.2,-2990.53"/>
<polygon fill="none" stroke="#29235c" points="157.2,-2990.53 157.2,-3050.53 480.2,-3050.53 480.2,-2990.53 157.2,-2990.53"/>
<text text-anchor="start" x="185.32" y="-3011.73" font-family="Helvetica,sans-Serif" font-weight="bold" font-size="32.00" fill="#ffffff"> &#160;&#160;&#160;&#160;&#160;&#160;Employee &#160;&#160;&#160;&#160;&#160;&#160;</text>
<polygon fill="#e7e2dd" stroke="transparent" points="157.2,-2930.53 157.2,-2990.53 480.2,-2990.53 480.2,-2930.53 157.2,-2930.53"/>
<polygon fill="none" stroke="#29235c" points="157.2,-2930.53 157.2,-2990.53 480.2,-2990.53 480.2,-2930.53 157.2,-2930.53"/>
<text text-anchor="start" x="168.2" y="-2951.73" font-family="Helvetica,sans-Serif" font-weight="bold" font-size="32.00" fill="#29235c">id</text>
<text text-anchor="start" x="193.09" y="-2951.73" font-family="Helvetica,sans-Serif" font-size="32.00" fill="#29235c"> &#160;&#160;&#160;</text>
<text text-anchor="start" x="326.98" y="-2951.73" font-family="Helvetica,sans-Serif" font-style="italic" font-size="32.00" fill="#29235c">INTEGER</text>
<polygon fill="#e7e2dd" stroke="transparent" points="157.2,-2870.53 157.2,-2930.53 480.2,-2930.53 480.2,-2870.53 157.2,-2870.53"/>
<polygon fill="none" stroke="#29235c" points="157.2,-2870.53 157.2,-2930.53 480.2,-2930.53 480.2,-2870.53 157.2,-2870.53"/>
<text text-anchor="start" x="168.2" y="-2890.73" font-family="Helvetica,sans-Serif" font-size="32.00" fill="#29235c">name &#160;&#160;&#160;</text>
<text text-anchor="start" x="312.77" y="-2891.73" font-family="Helvetica,sans-Serif" font-style="italic" font-size="32.00" fill="#29235c">VARCHAR</text>
<polygon fill="#e7e2dd" stroke="transparent" points="157.2,-2810.53 157.2,-2870.53 480.2,-2870.53 480.2,-2810.53 157.2,-2810.53"/>
<polygon fill="none" stroke="#29235c" points="157.2,-2810.53 157.2,-2870.53 480.2,-2870.53 480.2,-2810.53 157.2,-2810.53"/>
<text text-anchor="start" x="167.79" y="-2830.73" font-family="Helvetica,sans-Serif" font-size="32.00" fill="#29235c">position &#160;&#160;&#160;</text>
<text text-anchor="start" x="312.99" y="-2831.73" font-family="Helvetica,sans-Serif" font-style="italic" font-size="32.00" fill="#29235c">VARCHAR</text>
<polygon fill="#e7e2dd" stroke="transparent" points="157.2,-2750.53 157.2,-2810.53 480.2,-2810.53 480.2,-2750.53 157.2,-2750.53"/>
<polygon fill="none" stroke="#29235c" points="157.2,-2750.53 157.2,-2810.53 480.2,-2810.53 480.2,-2750.53 157.2,-2750.53"/>
<text text-anchor="start" x="168.2" y="-2770.73" font-family="Helvetica,sans-Serif" font-size="32.00" fill="#29235c">salary &#160;&#160;&#160;</text>
<text text-anchor="start" x="366.08" y="-2771.73" font-family="Helvetica,sans-Serif" font-style="italic" font-size="32.00" fill="#29235c">FLOAT</text>
<polygon fill="none" stroke="#29235c" stroke-width="2" points="155.7,-2749.53 155.7,-3051.53 480.7,-3051.53 480.7,-2749.53 155.7,-2749.53"/>
</g>
<!-- Inventory -->
<g id="Inventory" class="node">
<title>Inventory</title>
<ellipse fill="none" stroke="black" stroke-width="0" cx="318.2" cy="-1515.53" rx="318.4" ry="172.57"/>
<polygon fill="#1d71b8" stroke="transparent" points="95.2,-1575.53 95.2,-1635.53 541.2,-1635.53 541.2,-1575.53 95.2,-1575.53"/>
<polygon fill="none" stroke="#29235c" points="95.2,-1575.53 95.2,-1635.53 541.2,-1635.53 541.2,-1575.53 95.2,-1575.53"/>
<text text-anchor="start" x="190.15" y="-1596.73" font-family="Helvetica,sans-Serif" font-weight="bold" font-size="32.00" fill="#ffffff"> &#160;&#160;&#160;&#160;&#160;&#160;Inventory &#160;&#160;&#160;&#160;&#160;&#160;</text>
<polygon fill="#e7e2dd" stroke="transparent" points="95.2,-1515.53 95.2,-1575.53 541.2,-1575.53 541.2,-1515.53 95.2,-1515.53"/>
<polygon fill="none" stroke="#29235c" points="95.2,-1515.53 95.2,-1575.53 541.2,-1575.53 541.2,-1515.53 95.2,-1515.53"/>
<text text-anchor="start" x="106.2" y="-1536.73" font-family="Helvetica,sans-Serif" font-weight="bold" font-size="32.00" fill="#29235c">id</text>
<text text-anchor="start" x="131.09" y="-1536.73" font-family="Helvetica,sans-Serif" font-size="32.00" fill="#29235c"> &#160;&#160;&#160;</text>
<text text-anchor="start" x="387.98" y="-1536.73" font-family="Helvetica,sans-Serif" font-style="italic" font-size="32.00" fill="#29235c">INTEGER</text>
<polygon fill="#e7e2dd" stroke="transparent" points="95.2,-1455.53 95.2,-1515.53 541.2,-1515.53 541.2,-1455.53 95.2,-1455.53"/>
<polygon fill="none" stroke="#29235c" points="95.2,-1455.53 95.2,-1515.53 541.2,-1515.53 541.2,-1455.53 95.2,-1455.53"/>
<text text-anchor="start" x="106.2" y="-1475.73" font-family="Helvetica,sans-Serif" font-size="32.00" fill="#29235c">product_id &#160;&#160;&#160;</text>
<text text-anchor="start" x="387.98" y="-1476.73" font-family="Helvetica,sans-Serif" font-style="italic" font-size="32.00" fill="#29235c">INTEGER</text>
<polygon fill="#e7e2dd" stroke="transparent" points="95.2,-1395.53 95.2,-1455.53 541.2,-1455.53 541.2,-1395.53 95.2,-1395.53"/>
<polygon fill="none" stroke="#29235c" points="95.2,-1395.53 95.2,-1455.53 541.2,-1455.53 541.2,-1395.53 95.2,-1395.53"/>
<text text-anchor="start" x="105.82" y="-1415.73" font-family="Helvetica,sans-Serif" font-size="32.00" fill="#29235c">quantity_in_stock &#160;&#160;&#160;</text>
<text text-anchor="start" x="388.09" y="-1416.73" font-family="Helvetica,sans-Serif" font-style="italic" font-size="32.00" fill="#29235c">INTEGER</text>
<polygon fill="none" stroke="#29235c" stroke-width="2" points="94.2,-1394.53 94.2,-1636.53 542.2,-1636.53 542.2,-1394.53 94.2,-1394.53"/>
</g>
<!-- Inventory&#45;&gt;Product -->
<!-- Inventory&#45;&gt;Product -->
<g id="edge6" class="edge">
<title>Inventory:e&#45;&gt;Product:w</title>
<path fill="none" stroke="#29235c" stroke-width="3" d="M542.2,-1485.53C686.3,-1485.53 683.53,-1329.13 820.74,-1321.8"/>
<polygon fill="#29235c" stroke="#29235c" stroke-width="3" points="820.96,-1325.3 830.87,-1321.53 820.78,-1318.3 820.96,-1325.3"/>
<text text-anchor="middle" x="824.64" y="-1292.73" font-family="Helvetica,sans-Serif" font-size="32.00" fill="#29235c">*</text>
<text text-anchor="middle" x="533.3" y="-1495.13" font-family="Helvetica,sans-Serif" font-size="32.00" fill="#29235c">1</text>
</g>
<!-- Order -->
<g id="Order" class="node">
<title>Order</title>
<ellipse fill="none" stroke="black" stroke-width="0" cx="977.87" cy="-2007.53" rx="266.66" ry="172.57"/>
<polygon fill="#1d71b8" stroke="transparent" points="791.87,-2067.53 791.87,-2127.53 1164.87,-2127.53 1164.87,-2067.53 791.87,-2067.53"/>
<polygon fill="none" stroke="#29235c" points="791.87,-2067.53 791.87,-2127.53 1164.87,-2127.53 1164.87,-2067.53 791.87,-2067.53"/>
<text text-anchor="start" x="875.23" y="-2088.73" font-family="Helvetica,sans-Serif" font-weight="bold" font-size="32.00" fill="#ffffff"> &#160;&#160;&#160;&#160;&#160;&#160;Order &#160;&#160;&#160;&#160;&#160;&#160;</text>
<polygon fill="#e7e2dd" stroke="transparent" points="791.87,-2007.53 791.87,-2067.53 1164.87,-2067.53 1164.87,-2007.53 791.87,-2007.53"/>
<polygon fill="none" stroke="#29235c" points="791.87,-2007.53 791.87,-2067.53 1164.87,-2067.53 1164.87,-2007.53 791.87,-2007.53"/>
<text text-anchor="start" x="802.87" y="-2028.73" font-family="Helvetica,sans-Serif" font-weight="bold" font-size="32.00" fill="#29235c">id</text>
<text text-anchor="start" x="827.76" y="-2028.73" font-family="Helvetica,sans-Serif" font-size="32.00" fill="#29235c"> &#160;&#160;&#160;</text>
<text text-anchor="start" x="1011.65" y="-2028.73" font-family="Helvetica,sans-Serif" font-style="italic" font-size="32.00" fill="#29235c">INTEGER</text>
<polygon fill="#e7e2dd" stroke="transparent" points="791.87,-1947.53 791.87,-2007.53 1164.87,-2007.53 1164.87,-1947.53 791.87,-1947.53"/>
<polygon fill="none" stroke="#29235c" points="791.87,-1947.53 791.87,-2007.53 1164.87,-2007.53 1164.87,-1947.53 791.87,-1947.53"/>
<text text-anchor="start" x="802.46" y="-1967.73" font-family="Helvetica,sans-Serif" font-size="32.00" fill="#29235c">customer_id &#160;&#160;&#160;</text>
<text text-anchor="start" x="1011.76" y="-1968.73" font-family="Helvetica,sans-Serif" font-style="italic" font-size="32.00" fill="#29235c">INTEGER</text>
<polygon fill="#e7e2dd" stroke="transparent" points="791.87,-1887.53 791.87,-1947.53 1164.87,-1947.53 1164.87,-1887.53 791.87,-1887.53"/>
<polygon fill="none" stroke="#29235c" points="791.87,-1887.53 791.87,-1947.53 1164.87,-1947.53 1164.87,-1887.53 791.87,-1887.53"/>
<text text-anchor="start" x="802.72" y="-1907.73" font-family="Helvetica,sans-Serif" font-size="32.00" fill="#29235c">order_date &#160;&#160;&#160;</text>
<text text-anchor="start" x="992.48" y="-1908.73" font-family="Helvetica,sans-Serif" font-style="italic" font-size="32.00" fill="#29235c">DATETIME</text>
<polygon fill="none" stroke="#29235c" stroke-width="2" points="790.37,-1886.53 790.37,-2128.53 1165.37,-2128.53 1165.37,-1886.53 790.37,-1886.53"/>
</g>
<!-- Order&#45;&gt;Customer -->
<!-- Order&#45;&gt;Customer -->
<g id="edge8" class="edge">
<title>Order:e&#45;&gt;Customer:w</title>
<path fill="none" stroke="#29235c" stroke-width="3" d="M1165.87,-1977.53C1320.54,-1977.53 1291.32,-2184.9 1437.73,-2194.21"/>
<polygon fill="#29235c" stroke="#29235c" stroke-width="3" points="1438,-2197.72 1448.11,-2194.53 1438.22,-2190.72 1438,-2197.72"/>
<text text-anchor="middle" x="1454.33" y="-2165.73" font-family="Helvetica,sans-Serif" font-size="32.00" fill="#29235c">*</text>
<text text-anchor="middle" x="1156.97" y="-1987.13" font-family="Helvetica,sans-Serif" font-size="32.00" fill="#29235c">1</text>
</g>
<!-- OrderDetail -->
<g id="OrderDetail" class="node">
<title>OrderDetail</title>
<ellipse fill="none" stroke="black" stroke-width="0" cx="318.2" cy="-1920.53" rx="248.8" ry="214.92"/>
<polygon fill="#1d71b8" stroke="transparent" points="144.2,-2010.53 144.2,-2070.53 492.2,-2070.53 492.2,-2010.53 144.2,-2010.53"/>
<polygon fill="none" stroke="#29235c" points="144.2,-2010.53 144.2,-2070.53 492.2,-2070.53 492.2,-2010.53 144.2,-2010.53"/>
<text text-anchor="start" x="174.17" y="-2031.73" font-family="Helvetica,sans-Serif" font-weight="bold" font-size="32.00" fill="#ffffff"> &#160;&#160;&#160;&#160;&#160;&#160;OrderDetail &#160;&#160;&#160;&#160;&#160;&#160;</text>
<polygon fill="#e7e2dd" stroke="transparent" points="144.2,-1950.53 144.2,-2010.53 492.2,-2010.53 492.2,-1950.53 144.2,-1950.53"/>
<polygon fill="none" stroke="#29235c" points="144.2,-1950.53 144.2,-2010.53 492.2,-2010.53 492.2,-1950.53 144.2,-1950.53"/>
<text text-anchor="start" x="155.2" y="-1971.73" font-family="Helvetica,sans-Serif" font-weight="bold" font-size="32.00" fill="#29235c">id</text>
<text text-anchor="start" x="180.09" y="-1971.73" font-family="Helvetica,sans-Serif" font-size="32.00" fill="#29235c"> &#160;&#160;&#160;</text>
<text text-anchor="start" x="338.98" y="-1971.73" font-family="Helvetica,sans-Serif" font-style="italic" font-size="32.00" fill="#29235c">INTEGER</text>
<polygon fill="#e7e2dd" stroke="transparent" points="144.2,-1890.53 144.2,-1950.53 492.2,-1950.53 492.2,-1890.53 144.2,-1890.53"/>
<polygon fill="none" stroke="#29235c" points="144.2,-1890.53 144.2,-1950.53 492.2,-1950.53 492.2,-1890.53 144.2,-1890.53"/>
<text text-anchor="start" x="155.2" y="-1910.73" font-family="Helvetica,sans-Serif" font-size="32.00" fill="#29235c">order_id &#160;&#160;&#160;</text>
<text text-anchor="start" x="338.98" y="-1911.73" font-family="Helvetica,sans-Serif" font-style="italic" font-size="32.00" fill="#29235c">INTEGER</text>
<polygon fill="#e7e2dd" stroke="transparent" points="144.2,-1830.53 144.2,-1890.53 492.2,-1890.53 492.2,-1830.53 144.2,-1830.53"/>
<polygon fill="none" stroke="#29235c" points="144.2,-1830.53 144.2,-1890.53 492.2,-1890.53 492.2,-1830.53 144.2,-1830.53"/>
<text text-anchor="start" x="154.72" y="-1850.73" font-family="Helvetica,sans-Serif" font-size="32.00" fill="#29235c">product_id &#160;&#160;&#160;</text>
<text text-anchor="start" x="339.09" y="-1851.73" font-family="Helvetica,sans-Serif" font-style="italic" font-size="32.00" fill="#29235c">INTEGER</text>
<polygon fill="#e7e2dd" stroke="transparent" points="144.2,-1770.53 144.2,-1830.53 492.2,-1830.53 492.2,-1770.53 144.2,-1770.53"/>
<polygon fill="none" stroke="#29235c" points="144.2,-1770.53 144.2,-1830.53 492.2,-1830.53 492.2,-1770.53 144.2,-1770.53"/>
<text text-anchor="start" x="155.2" y="-1790.73" font-family="Helvetica,sans-Serif" font-size="32.00" fill="#29235c">quantity &#160;&#160;&#160;</text>
<text text-anchor="start" x="338.98" y="-1791.73" font-family="Helvetica,sans-Serif" font-style="italic" font-size="32.00" fill="#29235c">INTEGER</text>
<polygon fill="none" stroke="#29235c" stroke-width="2" points="143.2,-1769.53 143.2,-2071.53 493.2,-2071.53 493.2,-1769.53 143.2,-1769.53"/>
</g>
<!-- OrderDetail&#45;&gt;Product -->
<!-- OrderDetail&#45;&gt;Product -->
<g id="edge12" class="edge">
<title>OrderDetail:e&#45;&gt;Product:w</title>
<path fill="none" stroke="#29235c" stroke-width="3" d="M493.2,-1860.53C772.43,-1860.53 553.67,-1334.61 820.74,-1321.77"/>
<polygon fill="#29235c" stroke="#29235c" stroke-width="3" points="820.95,-1325.27 830.87,-1321.53 820.79,-1318.27 820.95,-1325.27"/>
<text text-anchor="middle" x="837.09" y="-1331.13" font-family="Helvetica,sans-Serif" font-size="32.00" fill="#29235c">*</text>
<text text-anchor="middle" x="484.3" y="-1870.13" font-family="Helvetica,sans-Serif" font-size="32.00" fill="#29235c">1</text>
</g>
<!-- OrderDetail&#45;&gt;Order -->
<!-- OrderDetail&#45;&gt;Order -->
<g id="edge10" class="edge">
<title>OrderDetail:e&#45;&gt;Order:w</title>
<path fill="none" stroke="#29235c" stroke-width="3" d="M493.2,-1920.53C631.88,-1920.53 647.99,-2031.89 780.68,-2037.33"/>
<polygon fill="#29235c" stroke="#29235c" stroke-width="3" points="780.8,-2040.83 790.87,-2037.53 780.94,-2033.83 780.8,-2040.83"/>
<text text-anchor="middle" x="784.64" y="-2047.13" font-family="Helvetica,sans-Serif" font-size="32.00" fill="#29235c">*</text>
<text text-anchor="middle" x="484.3" y="-1930.13" font-family="Helvetica,sans-Serif" font-size="32.00" fill="#29235c">1</text>
</g>
<!-- ProductSupplier -->
<g id="ProductSupplier" class="node">
<title>ProductSupplier</title>
<ellipse fill="none" stroke="black" stroke-width="0" cx="318.2" cy="-172.53" rx="267.07" ry="172.57"/>
<polygon fill="#1d71b8" stroke="transparent" points="131.2,-232.53 131.2,-292.53 505.2,-292.53 505.2,-232.53 131.2,-232.53"/>
<polygon fill="none" stroke="#29235c" points="131.2,-232.53 131.2,-292.53 505.2,-292.53 505.2,-232.53 131.2,-232.53"/>
<text text-anchor="start" x="142.15" y="-253.73" font-family="Helvetica,sans-Serif" font-weight="bold" font-size="32.00" fill="#ffffff"> &#160;&#160;&#160;&#160;&#160;&#160;ProductSupplier &#160;&#160;&#160;&#160;&#160;&#160;</text>
<polygon fill="#e7e2dd" stroke="transparent" points="131.2,-172.53 131.2,-232.53 505.2,-232.53 505.2,-172.53 131.2,-172.53"/>
<polygon fill="none" stroke="#29235c" points="131.2,-172.53 131.2,-232.53 505.2,-232.53 505.2,-172.53 131.2,-172.53"/>
<text text-anchor="start" x="142.2" y="-193.73" font-family="Helvetica,sans-Serif" font-weight="bold" font-size="32.00" fill="#29235c">id</text>
<text text-anchor="start" x="167.09" y="-193.73" font-family="Helvetica,sans-Serif" font-size="32.00" fill="#29235c"> &#160;&#160;&#160;</text>
<text text-anchor="start" x="351.98" y="-193.73" font-family="Helvetica,sans-Serif" font-style="italic" font-size="32.00" fill="#29235c">INTEGER</text>
<polygon fill="#e7e2dd" stroke="transparent" points="131.2,-112.53 131.2,-172.53 505.2,-172.53 505.2,-112.53 131.2,-112.53"/>
<polygon fill="none" stroke="#29235c" points="131.2,-112.53 131.2,-172.53 505.2,-172.53 505.2,-112.53 131.2,-112.53"/>
<text text-anchor="start" x="142.2" y="-132.73" font-family="Helvetica,sans-Serif" font-size="32.00" fill="#29235c">product_id &#160;&#160;&#160;</text>
<text text-anchor="start" x="351.98" y="-133.73" font-family="Helvetica,sans-Serif" font-style="italic" font-size="32.00" fill="#29235c">INTEGER</text>
<polygon fill="#e7e2dd" stroke="transparent" points="131.2,-52.53 131.2,-112.53 505.2,-112.53 505.2,-52.53 131.2,-52.53"/>
<polygon fill="none" stroke="#29235c" points="131.2,-52.53 131.2,-112.53 505.2,-112.53 505.2,-52.53 131.2,-52.53"/>
<text text-anchor="start" x="142.2" y="-72.73" font-family="Helvetica,sans-Serif" font-size="32.00" fill="#29235c">supplier_id &#160;&#160;&#160;</text>
<text text-anchor="start" x="351.98" y="-73.73" font-family="Helvetica,sans-Serif" font-style="italic" font-size="32.00" fill="#29235c">INTEGER</text>
<polygon fill="none" stroke="#29235c" stroke-width="2" points="130.2,-51.53 130.2,-293.53 506.2,-293.53 506.2,-51.53 130.2,-51.53"/>
</g>
<!-- ProductSupplier&#45;&gt;Product -->
<!-- ProductSupplier&#45;&gt;Product -->
<g id="edge14" class="edge">
<title>ProductSupplier:e&#45;&gt;Product:w</title>
<path fill="none" stroke="#29235c" stroke-width="3" d="M506.2,-142.53C774.5,-142.53 564.59,-1291.79 820.75,-1320.97"/>
<polygon fill="#29235c" stroke="#29235c" stroke-width="3" points="820.69,-1324.47 830.87,-1321.53 821.08,-1317.48 820.69,-1324.47"/>
<text text-anchor="middle" x="837.09" y="-1292.73" font-family="Helvetica,sans-Serif" font-size="32.00" fill="#29235c">*</text>
<text text-anchor="middle" x="497.3" y="-113.73" font-family="Helvetica,sans-Serif" font-size="32.00" fill="#29235c">1</text>
</g>
<!-- Supplier -->
<g id="Supplier" class="node">
<title>Supplier</title>
<ellipse fill="none" stroke="black" stroke-width="0" cx="1595.11" cy="-330.53" rx="275.54" ry="172.57"/>
<polygon fill="#1d71b8" stroke="transparent" points="1402.11,-390.53 1402.11,-450.53 1788.11,-450.53 1788.11,-390.53 1402.11,-390.53"/>
<polygon fill="none" stroke="#29235c" points="1402.11,-390.53 1402.11,-450.53 1788.11,-450.53 1788.11,-390.53 1402.11,-390.53"/>
<text text-anchor="start" x="1474.18" y="-411.73" font-family="Helvetica,sans-Serif" font-weight="bold" font-size="32.00" fill="#ffffff"> &#160;&#160;&#160;&#160;&#160;&#160;Supplier &#160;&#160;&#160;&#160;&#160;&#160;</text>
<polygon fill="#e7e2dd" stroke="transparent" points="1402.11,-330.53 1402.11,-390.53 1788.11,-390.53 1788.11,-330.53 1402.11,-330.53"/>
<polygon fill="none" stroke="#29235c" points="1402.11,-330.53 1402.11,-390.53 1788.11,-390.53 1788.11,-330.53 1402.11,-330.53"/>
<text text-anchor="start" x="1413.11" y="-351.73" font-family="Helvetica,sans-Serif" font-weight="bold" font-size="32.00" fill="#29235c">id</text>
<text text-anchor="start" x="1438" y="-351.73" font-family="Helvetica,sans-Serif" font-size="32.00" fill="#29235c"> &#160;&#160;&#160;</text>
<text text-anchor="start" x="1634.89" y="-351.73" font-family="Helvetica,sans-Serif" font-style="italic" font-size="32.00" fill="#29235c">INTEGER</text>
<polygon fill="#e7e2dd" stroke="transparent" points="1402.11,-270.53 1402.11,-330.53 1788.11,-330.53 1788.11,-270.53 1402.11,-270.53"/>
<polygon fill="none" stroke="#29235c" points="1402.11,-270.53 1402.11,-330.53 1788.11,-330.53 1788.11,-270.53 1402.11,-270.53"/>
<text text-anchor="start" x="1413.11" y="-290.73" font-family="Helvetica,sans-Serif" font-size="32.00" fill="#29235c">name &#160;&#160;&#160;</text>
<text text-anchor="start" x="1620.68" y="-291.73" font-family="Helvetica,sans-Serif" font-style="italic" font-size="32.00" fill="#29235c">VARCHAR</text>
<polygon fill="#e7e2dd" stroke="transparent" points="1402.11,-210.53 1402.11,-270.53 1788.11,-270.53 1788.11,-210.53 1402.11,-210.53"/>
<polygon fill="none" stroke="#29235c" points="1402.11,-210.53 1402.11,-270.53 1788.11,-270.53 1788.11,-210.53 1402.11,-210.53"/>
<text text-anchor="start" x="1413.07" y="-230.73" font-family="Helvetica,sans-Serif" font-size="32.00" fill="#29235c">contact_info &#160;&#160;&#160;</text>
<text text-anchor="start" x="1620.9" y="-231.73" font-family="Helvetica,sans-Serif" font-style="italic" font-size="32.00" fill="#29235c">VARCHAR</text>
<polygon fill="none" stroke="#29235c" stroke-width="2" points="1401.11,-209.53 1401.11,-451.53 1789.11,-451.53 1789.11,-209.53 1401.11,-209.53"/>
</g>
<!-- ProductSupplier&#45;&gt;Supplier -->
<!-- ProductSupplier&#45;&gt;Supplier -->
<g id="edge16" class="edge">
<title>ProductSupplier:e&#45;&gt;Supplier:w</title>
<path fill="none" stroke="#29235c" stroke-width="3" d="M506.2,-82.53C858.66,-82.53 973.63,-72.28 1283.34,-240.53 1345.79,-274.47 1328.38,-352.42 1390.84,-359.95"/>
<polygon fill="#29235c" stroke="#29235c" stroke-width="3" points="1390.92,-363.46 1401.11,-360.53 1391.32,-356.47 1390.92,-363.46"/>
<text text-anchor="middle" x="1407.33" y="-331.73" font-family="Helvetica,sans-Serif" font-size="32.00" fill="#29235c">*</text>
<text text-anchor="middle" x="497.3" y="-53.73" font-family="Helvetica,sans-Serif" font-size="32.00" fill="#29235c">1</text>
</g>
<!-- Promotion -->
<g id="Promotion" class="node">
<title>Promotion</title>
<ellipse fill="none" stroke="black" stroke-width="0" cx="318.2" cy="-1067.53" rx="288.5" ry="257.27"/>
<polygon fill="#1d71b8" stroke="transparent" points="116.2,-1187.53 116.2,-1247.53 520.2,-1247.53 520.2,-1187.53 116.2,-1187.53"/>
<polygon fill="none" stroke="#29235c" points="116.2,-1187.53 116.2,-1247.53 520.2,-1247.53 520.2,-1187.53 116.2,-1187.53"/>
<text text-anchor="start" x="183.05" y="-1208.73" font-family="Helvetica,sans-Serif" font-weight="bold" font-size="32.00" fill="#ffffff"> &#160;&#160;&#160;&#160;&#160;&#160;Promotion &#160;&#160;&#160;&#160;&#160;&#160;</text>
<polygon fill="#e7e2dd" stroke="transparent" points="116.2,-1127.53 116.2,-1187.53 520.2,-1187.53 520.2,-1127.53 116.2,-1127.53"/>
<polygon fill="none" stroke="#29235c" points="116.2,-1127.53 116.2,-1187.53 520.2,-1187.53 520.2,-1127.53 116.2,-1127.53"/>
<text text-anchor="start" x="127.2" y="-1148.73" font-family="Helvetica,sans-Serif" font-weight="bold" font-size="32.00" fill="#29235c">id</text>
<text text-anchor="start" x="152.09" y="-1148.73" font-family="Helvetica,sans-Serif" font-size="32.00" fill="#29235c"> &#160;&#160;&#160;</text>
<text text-anchor="start" x="366.98" y="-1148.73" font-family="Helvetica,sans-Serif" font-style="italic" font-size="32.00" fill="#29235c">INTEGER</text>
<polygon fill="#e7e2dd" stroke="transparent" points="116.2,-1067.53 116.2,-1127.53 520.2,-1127.53 520.2,-1067.53 116.2,-1067.53"/>
<polygon fill="none" stroke="#29235c" points="116.2,-1067.53 116.2,-1127.53 520.2,-1127.53 520.2,-1067.53 116.2,-1067.53"/>
<text text-anchor="start" x="127.2" y="-1087.73" font-family="Helvetica,sans-Serif" font-size="32.00" fill="#29235c">product_id &#160;&#160;&#160;</text>
<text text-anchor="start" x="366.98" y="-1088.73" font-family="Helvetica,sans-Serif" font-style="italic" font-size="32.00" fill="#29235c">INTEGER</text>
<polygon fill="#e7e2dd" stroke="transparent" points="116.2,-1007.53 116.2,-1067.53 520.2,-1067.53 520.2,-1007.53 116.2,-1007.53"/>
<polygon fill="none" stroke="#29235c" points="116.2,-1007.53 116.2,-1067.53 520.2,-1067.53 520.2,-1007.53 116.2,-1007.53"/>
<text text-anchor="start" x="127.09" y="-1027.73" font-family="Helvetica,sans-Serif" font-size="32.00" fill="#29235c">discount_percent &#160;&#160;&#160;</text>
<text text-anchor="start" x="406.14" y="-1028.73" font-family="Helvetica,sans-Serif" font-style="italic" font-size="32.00" fill="#29235c">FLOAT</text>
<polygon fill="#e7e2dd" stroke="transparent" points="116.2,-947.53 116.2,-1007.53 520.2,-1007.53 520.2,-947.53 116.2,-947.53"/>
<polygon fill="none" stroke="#29235c" points="116.2,-947.53 116.2,-1007.53 520.2,-1007.53 520.2,-947.53 116.2,-947.53"/>
<text text-anchor="start" x="127.2" y="-967.73" font-family="Helvetica,sans-Serif" font-size="32.00" fill="#29235c">start_date &#160;&#160;&#160;</text>
<text text-anchor="start" x="347.43" y="-968.73" font-family="Helvetica,sans-Serif" font-style="italic" font-size="32.00" fill="#29235c">DATETIME</text>
<polygon fill="#e7e2dd" stroke="transparent" points="116.2,-887.53 116.2,-947.53 520.2,-947.53 520.2,-887.53 116.2,-887.53"/>
<polygon fill="none" stroke="#29235c" points="116.2,-887.53 116.2,-947.53 520.2,-947.53 520.2,-887.53 116.2,-887.53"/>
<text text-anchor="start" x="127.2" y="-907.73" font-family="Helvetica,sans-Serif" font-size="32.00" fill="#29235c">end_date &#160;&#160;&#160;</text>
<text text-anchor="start" x="347.43" y="-908.73" font-family="Helvetica,sans-Serif" font-style="italic" font-size="32.00" fill="#29235c">DATETIME</text>
<polygon fill="none" stroke="#29235c" stroke-width="2" points="115.2,-886.53 115.2,-1248.53 521.2,-1248.53 521.2,-886.53 115.2,-886.53"/>
</g>
<!-- Promotion&#45;&gt;Product -->
<!-- Promotion&#45;&gt;Product -->
<g id="edge18" class="edge">
<title>Promotion:e&#45;&gt;Product:w</title>
<path fill="none" stroke="#29235c" stroke-width="3" d="M521.2,-1097.53C687.58,-1097.53 662.15,-1312.44 820.66,-1321.26"/>
<polygon fill="#29235c" stroke="#29235c" stroke-width="3" points="820.77,-1324.76 830.87,-1321.53 820.97,-1317.76 820.77,-1324.76"/>
<text text-anchor="middle" x="824.64" y="-1331.13" font-family="Helvetica,sans-Serif" font-size="32.00" fill="#29235c">*</text>
<text text-anchor="middle" x="512.3" y="-1107.13" font-family="Helvetica,sans-Serif" font-size="32.00" fill="#29235c">1</text>
</g>
<!-- Shipment -->
<g id="Shipment" class="node">
<title>Shipment</title>
<ellipse fill="none" stroke="black" stroke-width="0" cx="977.87" cy="-505.53" rx="305.44" ry="172.57"/>
<polygon fill="#1d71b8" stroke="transparent" points="763.87,-565.53 763.87,-625.53 1191.87,-625.53 1191.87,-565.53 763.87,-565.53"/>
<polygon fill="none" stroke="#29235c" points="763.87,-565.53 763.87,-625.53 1191.87,-625.53 1191.87,-565.53 763.87,-565.53"/>
<text text-anchor="start" x="848.05" y="-586.73" font-family="Helvetica,sans-Serif" font-weight="bold" font-size="32.00" fill="#ffffff"> &#160;&#160;&#160;&#160;&#160;&#160;Shipment &#160;&#160;&#160;&#160;&#160;&#160;</text>
<polygon fill="#e7e2dd" stroke="transparent" points="763.87,-505.53 763.87,-565.53 1191.87,-565.53 1191.87,-505.53 763.87,-505.53"/>
<polygon fill="none" stroke="#29235c" points="763.87,-505.53 763.87,-565.53 1191.87,-565.53 1191.87,-505.53 763.87,-505.53"/>
<text text-anchor="start" x="774.87" y="-526.73" font-family="Helvetica,sans-Serif" font-weight="bold" font-size="32.00" fill="#29235c">id</text>
<text text-anchor="start" x="799.76" y="-526.73" font-family="Helvetica,sans-Serif" font-size="32.00" fill="#29235c"> &#160;&#160;&#160;</text>
<text text-anchor="start" x="1038.65" y="-526.73" font-family="Helvetica,sans-Serif" font-style="italic" font-size="32.00" fill="#29235c">INTEGER</text>
<polygon fill="#e7e2dd" stroke="transparent" points="763.87,-445.53 763.87,-505.53 1191.87,-505.53 1191.87,-445.53 763.87,-445.53"/>
<polygon fill="none" stroke="#29235c" points="763.87,-445.53 763.87,-505.53 1191.87,-505.53 1191.87,-445.53 763.87,-445.53"/>
<text text-anchor="start" x="774.87" y="-465.73" font-family="Helvetica,sans-Serif" font-size="32.00" fill="#29235c">supplier_id &#160;&#160;&#160;</text>
<text text-anchor="start" x="1038.65" y="-466.73" font-family="Helvetica,sans-Serif" font-style="italic" font-size="32.00" fill="#29235c">INTEGER</text>
<polygon fill="#e7e2dd" stroke="transparent" points="763.87,-385.53 763.87,-445.53 1191.87,-445.53 1191.87,-385.53 763.87,-385.53"/>
<polygon fill="none" stroke="#29235c" points="763.87,-385.53 763.87,-445.53 1191.87,-445.53 1191.87,-385.53 763.87,-385.53"/>
<text text-anchor="start" x="774.66" y="-405.73" font-family="Helvetica,sans-Serif" font-size="32.00" fill="#29235c">shipment_date &#160;&#160;&#160;</text>
<text text-anchor="start" x="1019.48" y="-406.73" font-family="Helvetica,sans-Serif" font-style="italic" font-size="32.00" fill="#29235c">DATETIME</text>
<polygon fill="none" stroke="#29235c" stroke-width="2" points="762.87,-384.53 762.87,-626.53 1192.87,-626.53 1192.87,-384.53 762.87,-384.53"/>
</g>
<!-- Shipment&#45;&gt;Supplier -->
<!-- Shipment&#45;&gt;Supplier -->
<g id="edge20" class="edge">
<title>Shipment:e&#45;&gt;Supplier:w</title>
<path fill="none" stroke="#29235c" stroke-width="3" d="M1192.87,-475.53C1295.08,-475.53 1295.47,-368.04 1390.93,-360.91"/>
<polygon fill="#29235c" stroke="#29235c" stroke-width="3" points="1391.24,-364.4 1401.11,-360.53 1390.99,-357.4 1391.24,-364.4"/>
<text text-anchor="middle" x="1407.33" y="-370.13" font-family="Helvetica,sans-Serif" font-size="32.00" fill="#29235c">*</text>
<text text-anchor="middle" x="1183.97" y="-446.73" font-family="Helvetica,sans-Serif" font-size="32.00" fill="#29235c">1</text>
</g>
<!-- ShipmentDetail -->
<g id="ShipmentDetail" class="node">
<title>ShipmentDetail</title>
<ellipse fill="none" stroke="black" stroke-width="0" cx="318.2" cy="-577.53" rx="265.74" ry="214.92"/>
<polygon fill="#1d71b8" stroke="transparent" points="132.2,-667.53 132.2,-727.53 504.2,-727.53 504.2,-667.53 132.2,-667.53"/>
<polygon fill="none" stroke="#29235c" points="132.2,-667.53 132.2,-727.53 504.2,-727.53 504.2,-667.53 132.2,-667.53"/>
<text text-anchor="start" x="147.49" y="-688.73" font-family="Helvetica,sans-Serif" font-weight="bold" font-size="32.00" fill="#ffffff"> &#160;&#160;&#160;&#160;&#160;&#160;ShipmentDetail &#160;&#160;&#160;&#160;&#160;&#160;</text>
<polygon fill="#e7e2dd" stroke="transparent" points="132.2,-607.53 132.2,-667.53 504.2,-667.53 504.2,-607.53 132.2,-607.53"/>
<polygon fill="none" stroke="#29235c" points="132.2,-607.53 132.2,-667.53 504.2,-667.53 504.2,-607.53 132.2,-607.53"/>
<text text-anchor="start" x="143.2" y="-628.73" font-family="Helvetica,sans-Serif" font-weight="bold" font-size="32.00" fill="#29235c">id</text>
<text text-anchor="start" x="168.09" y="-628.73" font-family="Helvetica,sans-Serif" font-size="32.00" fill="#29235c"> &#160;&#160;&#160;</text>
<text text-anchor="start" x="350.98" y="-628.73" font-family="Helvetica,sans-Serif" font-style="italic" font-size="32.00" fill="#29235c">INTEGER</text>
<polygon fill="#e7e2dd" stroke="transparent" points="132.2,-547.53 132.2,-607.53 504.2,-607.53 504.2,-547.53 132.2,-547.53"/>
<polygon fill="none" stroke="#29235c" points="132.2,-547.53 132.2,-607.53 504.2,-607.53 504.2,-547.53 132.2,-547.53"/>
<text text-anchor="start" x="143.17" y="-567.73" font-family="Helvetica,sans-Serif" font-size="32.00" fill="#29235c">shipment_id &#160;&#160;&#160;</text>
<text text-anchor="start" x="351.09" y="-568.73" font-family="Helvetica,sans-Serif" font-style="italic" font-size="32.00" fill="#29235c">INTEGER</text>
<polygon fill="#e7e2dd" stroke="transparent" points="132.2,-487.53 132.2,-547.53 504.2,-547.53 504.2,-487.53 132.2,-487.53"/>
<polygon fill="none" stroke="#29235c" points="132.2,-487.53 132.2,-547.53 504.2,-547.53 504.2,-487.53 132.2,-487.53"/>
<text text-anchor="start" x="143.2" y="-507.73" font-family="Helvetica,sans-Serif" font-size="32.00" fill="#29235c">product_id &#160;&#160;&#160;</text>
<text text-anchor="start" x="350.98" y="-508.73" font-family="Helvetica,sans-Serif" font-style="italic" font-size="32.00" fill="#29235c">INTEGER</text>
<polygon fill="#e7e2dd" stroke="transparent" points="132.2,-427.53 132.2,-487.53 504.2,-487.53 504.2,-427.53 132.2,-427.53"/>
<polygon fill="none" stroke="#29235c" points="132.2,-427.53 132.2,-487.53 504.2,-487.53 504.2,-427.53 132.2,-427.53"/>
<text text-anchor="start" x="143.2" y="-447.73" font-family="Helvetica,sans-Serif" font-size="32.00" fill="#29235c">quantity &#160;&#160;&#160;</text>
<text text-anchor="start" x="350.98" y="-448.73" font-family="Helvetica,sans-Serif" font-style="italic" font-size="32.00" fill="#29235c">INTEGER</text>
<polygon fill="none" stroke="#29235c" stroke-width="2" points="131.2,-426.53 131.2,-728.53 505.2,-728.53 505.2,-426.53 131.2,-426.53"/>
</g>
<!-- ShipmentDetail&#45;&gt;Product -->
<!-- ShipmentDetail&#45;&gt;Product -->
<g id="edge22" class="edge">
<title>ShipmentDetail:e&#45;&gt;Product:w</title>
<path fill="none" stroke="#29235c" stroke-width="3" d="M505.2,-517.53C887.25,-517.53 453.31,-1307.07 820.62,-1321.34"/>
<polygon fill="#29235c" stroke="#29235c" stroke-width="3" points="820.8,-1324.84 830.87,-1321.53 820.93,-1317.84 820.8,-1324.84"/>
<text text-anchor="middle" x="824.64" y="-1292.73" font-family="Helvetica,sans-Serif" font-size="32.00" fill="#29235c">*</text>
<text text-anchor="middle" x="496.3" y="-488.73" font-family="Helvetica,sans-Serif" font-size="32.00" fill="#29235c">1</text>
</g>
<!-- ShipmentDetail&#45;&gt;Shipment -->
<!-- ShipmentDetail&#45;&gt;Shipment -->
<g id="edge24" class="edge">
<title>ShipmentDetail:e&#45;&gt;Shipment:w</title>
<path fill="none" stroke="#29235c" stroke-width="3" d="M505.2,-577.53C617.72,-577.53 645.2,-538.04 752.57,-535.65"/>
<polygon fill="#29235c" stroke="#29235c" stroke-width="3" points="752.91,-539.14 762.87,-535.53 752.83,-532.14 752.91,-539.14"/>
<text text-anchor="middle" x="756.64" y="-506.73" font-family="Helvetica,sans-Serif" font-size="32.00" fill="#29235c">*</text>
<text text-anchor="middle" x="496.3" y="-548.73" font-family="Helvetica,sans-Serif" font-size="32.00" fill="#29235c">1</text>
</g>
</g>
</svg>
